 <svg width="260" height="40" viewBox="0 0 312 41" fill="none" xmlns="http://www.w3.org/2000/svg">
    <path d="M35.84 4.36C39.1733 4.36 41.7733 5.36 43.64 7.36C45.5067 9.36 46.44 12.24 46.44 16V33H37V16.28C37 14.8933 36.64 13.84 35.92 13.12C35.2 12.3733 34.2133 12 32.96 12C31.68 12 30.6533 12.4 29.88 13.2C29.1333 13.9733 28.76 15.1067 28.76 16.6V33H19.32V16.28C19.32 14.8933 18.9867 13.84 18.32 13.12C17.68 12.3733 16.7733 12 15.6 12C14.4 12 13.4533 12.4 12.76 13.2C12.0667 13.9733 11.72 15.1067 11.72 16.6V33H2.28V5H11.4V7.8C13.1333 5.50667 15.7067 4.36 19.12 4.36C22.6933 4.36 25.3467 5.61333 27.08 8.12C28.0667 6.86667 29.3067 5.93333 30.8 5.32C32.32 4.68 34 4.36 35.84 4.36ZM50.4766 11.12H59.5166V33H50.4766V11.12ZM54.9966 9.36C53.3699 9.36 52.0499 8.93333 51.0366 8.08C50.0499 7.2 49.5566 6.09333 49.5566 4.76C49.5566 3.42667 50.0499 2.33333 51.0366 1.48C52.0499 0.599998 53.3699 0.159998 54.9966 0.159998C56.6499 0.159998 57.9699 0.573332 58.9566 1.4C59.9432 2.22666 60.4366 3.29333 60.4366 4.6C60.4366 5.98666 59.9432 7.13333 58.9566 8.04C57.9699 8.92 56.6499 9.36 54.9966 9.36ZM75.2834 33.4C72.8034 33.4 70.5768 32.92 68.6034 31.96C66.6568 31 65.1234 29.6533 64.0034 27.92C62.9101 26.1867 62.3634 24.2267 62.3634 22.04C62.3634 19.8533 62.9101 17.9067 64.0034 16.2C65.1234 14.4667 66.6568 13.12 68.6034 12.16C70.5768 11.2 72.8034 10.72 75.2834 10.72C77.9501 10.72 80.2301 11.2933 82.1234 12.44C84.0168 13.5867 85.3234 15.1733 86.0434 17.2L79.0434 20.64C78.1901 18.72 76.9234 17.76 75.2434 17.76C74.1768 17.76 73.2834 18.1333 72.5634 18.88C71.8701 19.6267 71.5234 20.68 71.5234 22.04C71.5234 23.4267 71.8701 24.4933 72.5634 25.24C73.2834 25.9867 74.1768 26.36 75.2434 26.36C76.9234 26.36 78.1901 25.4 79.0434 23.48L86.0434 26.92C85.3234 28.9467 84.0168 30.5333 82.1234 31.68C80.2301 32.8267 77.9501 33.4 75.2834 33.4ZM96.7328 13.48C98.3328 11.64 100.693 10.72 103.813 10.72V18.72C103.093 18.6133 102.426 18.56 101.813 18.56C98.7195 18.56 97.1728 20.1333 97.1728 23.28V33H88.1328V11.12H96.7328V13.48ZM117.74 33.4C115.313 33.4 113.126 32.92 111.18 31.96C109.26 30.9733 107.753 29.6267 106.66 27.92C105.566 26.1867 105.02 24.2267 105.02 22.04C105.02 19.8533 105.566 17.9067 106.66 16.2C107.753 14.4667 109.26 13.12 111.18 12.16C113.126 11.2 115.313 10.72 117.74 10.72C120.193 10.72 122.38 11.2 124.3 12.16C126.246 13.12 127.753 14.4667 128.82 16.2C129.913 17.9067 130.46 19.8533 130.46 22.04C130.46 24.2267 129.913 26.1867 128.82 27.92C127.753 29.6267 126.246 30.9733 124.3 31.96C122.38 32.92 120.193 33.4 117.74 33.4ZM117.74 26.36C118.78 26.36 119.633 25.9867 120.3 25.24C120.966 24.4667 121.3 23.4 121.3 22.04C121.3 20.68 120.966 19.6267 120.3 18.88C119.633 18.1333 118.78 17.76 117.74 17.76C116.7 17.76 115.846 18.1333 115.18 18.88C114.513 19.6267 114.18 20.68 114.18 22.04C114.18 23.4 114.513 24.4667 115.18 25.24C115.846 25.9867 116.7 26.36 117.74 26.36ZM139.633 37.64C137.447 37.64 135.46 37.28 133.673 36.56C131.913 35.8667 130.46 34.84 129.313 33.48L134.393 27.48C135.14 28.4133 135.873 29.1067 136.593 29.56C137.313 30.0133 138.06 30.24 138.833 30.24C139.82 30.24 140.567 29.9467 141.073 29.36C141.607 28.7733 141.873 27.9067 141.873 26.76V12.12H132.353V5H151.193V26.2C151.193 30.0133 150.207 32.8667 148.233 34.76C146.287 36.68 143.42 37.64 139.633 37.64ZM179.162 11.12V33H170.562V30.92C169.762 31.7467 168.829 32.3733 167.762 32.8C166.696 33.2 165.562 33.4 164.362 33.4C161.589 33.4 159.362 32.56 157.682 30.88C156.002 29.1733 155.162 26.6133 155.162 23.2V11.12H164.202V21.64C164.202 23.1333 164.442 24.2 164.922 24.84C165.402 25.48 166.109 25.8 167.042 25.8C167.922 25.8 168.656 25.4533 169.242 24.76C169.829 24.04 170.122 22.92 170.122 21.4V11.12H179.162ZM233.748 10.72C235.668 10.72 237.428 11.1867 239.028 12.12C240.655 13.0267 241.935 14.3467 242.868 16.08C243.828 17.8133 244.308 19.8133 244.308 22.08C244.308 24.3467 243.828 26.3467 242.868 28.08C241.935 29.7867 240.655 31.1067 239.028 32.04C237.428 32.9467 235.668 33.4 233.748 33.4C231.322 33.4 229.468 32.7733 228.188 31.52V40.76H219.148V11.12H227.748V12.92C229.055 11.4533 231.055 10.72 233.748 10.72ZM231.588 26.36C232.628 26.36 233.482 25.9867 234.148 25.24C234.815 24.4933 235.148 23.44 235.148 22.08C235.148 20.72 234.815 19.6667 234.148 18.92C233.482 18.1467 232.628 17.76 231.588 17.76C230.548 17.76 229.695 18.1467 229.028 18.92C228.362 19.6667 228.028 20.72 228.028 22.08C228.028 23.44 228.362 24.4933 229.028 25.24C229.695 25.9867 230.548 26.36 231.588 26.36ZM259.516 26.72C260.476 26.72 261.276 26.6 261.916 26.36C262.583 26.12 263.303 25.7067 264.076 25.12L268.796 29.88C266.61 32.2267 263.423 33.4 259.236 33.4C256.596 33.4 254.276 32.92 252.276 31.96C250.276 30.9733 248.73 29.6133 247.636 27.88C246.543 26.1467 245.996 24.2 245.996 22.04C245.996 19.8533 246.543 17.9067 247.636 16.2C248.73 14.4667 250.223 13.12 252.116 12.16C254.036 11.2 256.183 10.72 258.556 10.72C260.716 10.72 262.703 11.16 264.516 12.04C266.33 12.8933 267.77 14.1733 268.836 15.88C269.903 17.56 270.436 19.5733 270.436 21.92L255.476 24.8C256.143 26.08 257.49 26.72 259.516 26.72ZM258.596 16.88C257.556 16.88 256.703 17.1867 256.036 17.8C255.396 18.4133 255.01 19.32 254.876 20.52L261.876 19.16C261.636 18.4667 261.223 17.92 260.636 17.52C260.076 17.0933 259.396 16.88 258.596 16.88ZM281.889 13.48C283.489 11.64 285.849 10.72 288.969 10.72V18.72C288.249 18.6133 287.582 18.56 286.969 18.56C283.876 18.56 282.329 20.1333 282.329 23.28V33H273.289V11.12H281.889V13.48ZM300.091 33.4C298.225 33.4 296.385 33.2 294.571 32.8C292.758 32.4 291.291 31.88 290.171 31.24L292.651 25.28C293.665 25.8933 294.865 26.3733 296.251 26.72C297.638 27.0667 298.985 27.24 300.291 27.24C301.331 27.24 302.051 27.16 302.451 27C302.878 26.8133 303.091 26.5467 303.091 26.2C303.091 25.8533 302.825 25.6133 302.291 25.48C301.785 25.3467 300.945 25.2133 299.771 25.08C297.985 24.8667 296.465 24.6 295.211 24.28C293.958 23.9333 292.851 23.28 291.891 22.32C290.958 21.36 290.491 19.9867 290.491 18.2C290.491 16.7867 290.918 15.52 291.771 14.4C292.625 13.28 293.891 12.3867 295.571 11.72C297.278 11.0533 299.318 10.72 301.691 10.72C303.345 10.72 304.958 10.88 306.531 11.2C308.131 11.4933 309.491 11.9333 310.611 12.52L308.131 18.48C306.211 17.4133 304.105 16.88 301.811 16.88C299.838 16.88 298.851 17.2267 298.851 17.92C298.851 18.2667 299.118 18.52 299.651 18.68C300.185 18.8133 301.025 18.9467 302.171 19.08C303.958 19.2933 305.465 19.5733 306.691 19.92C307.945 20.2667 309.038 20.92 309.971 21.88C310.931 22.84 311.411 24.2133 311.411 26C311.411 27.36 310.985 28.6 310.131 29.72C309.278 30.84 307.998 31.7333 306.291 32.4C304.585 33.0667 302.518 33.4 300.091 33.4Z" fill="white"/>
    <path d="M0 37H48.48V39H0V37Z" fill="white"/>
    <path d="M181.2 31.0154C190.2 25.5154 187.623 14.7515 191.971 15.2865C197.471 15.9634 194.188 32.163 199.734 31.5952C205.794 30.9748 201.797 13.459 207.603 13.0231C213.409 12.5871 211.12 32.7188 217.153 25.3932" stroke="#E8723F" stroke-width="3.91821" stroke-linecap="round" stroke-linejoin="round"/>
</svg>